inDegrees=no
DataType=double
version=3
OpenSimVersion=4.4-2022-10-11-798caa840
endheader
time	elv_angle	shoulder_elv	shoulder_rot	elbow_flexion	pro_sup	deviation	flexion
3.6031277150	0.2616344683	0.7301523032	0.5508094070	1.2265404474	0.0000000000	0.0000000000	0.0000000000
3.6072980017	0.2604880332	0.7292472228	0.5483958593	1.2280489147	0.0000000000	0.0000000000	0.0000000000
3.6114682884	0.2593337755	0.7283359668	0.5459658433	1.2295676748	0.0000000000	0.0000000000	0.0000000000
3.6156385752	0.2581717804	0.7274186022	0.5435195376	1.2310966158	0.0000000000	0.0000000000	0.0000000000
3.6198088619	0.2570021337	0.7264951969	0.5410571236	1.2326356246	0.0000000000	0.0000000000	0.0000000000
3.6239791486	0.2558249227	0.7255658198	0.5385787845	1.2341845865	0.0000000000	0.0000000000	0.0000000000
3.6281494353	0.2546402355	0.7246305404	0.5360847062	1.2357433854	0.0000000000	0.0000000000	0.0000000000
3.6323197220	0.2534481614	0.7236894294	0.5335750767	1.2373119039	0.0000000000	0.0000000000	0.0000000000
3.6364900087	0.2522487909	0.7227425579	0.5310500860	1.2388900230	0.0000000000	0.0000000000	0.0000000000
3.6406602954	0.2510422152	0.7217899981	0.5285099267	1.2404776226	0.0000000000	0.0000000000	0.0000000000
3.6448305821	0.2498285267	0.7208318230	0.5259547931	1.2420745811	0.0000000000	0.0000000000	0.0000000000
3.6490008688	0.2486078190	0.7198681063	0.5233848820	1.2436807755	0.0000000000	0.0000000000	0.0000000000
3.6531711555	0.2473801862	0.7188989226	0.5208003920	1.2452960818	0.0000000000	0.0000000000	0.0000000000
3.6573414422	0.2461457239	0.7179243471	0.5182015240	1.2469203743	0.0000000000	0.0000000000	0.0000000000
3.6615117289	0.2449045283	0.7169444558	0.5155884806	1.2485535264	0.0000000000	0.0000000000	0.0000000000
3.6656820156	0.2436566966	0.7159593256	0.5129614666	1.2501954102	0.0000000000	0.0000000000	0.0000000000
3.6698523023	0.2424023271	0.7149690339	0.5103206887	1.2518458964	0.0000000000	0.0000000000	0.0000000000
3.6740225891	0.2411415189	0.7139736589	0.5076663555	1.2535048546	0.0000000000	0.0000000000	0.0000000000
3.6781928758	0.2398743718	0.7129732796	0.5049986774	1.2551721534	0.0000000000	0.0000000000	0.0000000000
3.6823631625	0.2386009868	0.7119679757	0.5023178669	1.2568476600	0.0000000000	0.0000000000	0.0000000000
3.6865334492	0.2373214655	0.7109578273	0.4996241379	1.2585312406	0.0000000000	0.0000000000	0.0000000000
3.6907037359	0.2360359105	0.7099429155	0.4969177064	1.2602227603	0.0000000000	0.0000000000	0.0000000000
3.6948740226	0.2347444253	0.7089233219	0.4941987900	1.2619220830	0.0000000000	0.0000000000	0.0000000000
3.6990443093	0.2334471138	0.7078991286	0.4914676081	1.2636290717	0.0000000000	0.0000000000	0.0000000000
3.7032145960	0.2321440813	0.7068704187	0.4887243817	1.2653435883	0.0000000000	0.0000000000	0.0000000000
3.7073848827	0.2308354334	0.7058372756	0.4859693334	1.2670654934	0.0000000000	0.0000000000	0.0000000000
3.7115551694	0.2295212766	0.7047997834	0.4832026875	1.2687946471	0.0000000000	0.0000000000	0.0000000000
3.7157254561	0.2282017182	0.7037580268	0.4804246698	1.2705309082	0.0000000000	0.0000000000	0.0000000000
3.7198957428	0.2268768662	0.7027120910	0.4776355077	1.2722741345	0.0000000000	0.0000000000	0.0000000000
3.7240660295	0.2255468293	0.7016620619	0.4748354301	1.2740241830	0.0000000000	0.0000000000	0.0000000000
3.7282363162	0.2242117170	0.7006080259	0.4720246673	1.2757809097	0.0000000000	0.0000000000	0.0000000000
3.7324066030	0.2228716393	0.6995500698	0.4692034511	1.2775441698	0.0000000000	0.0000000000	0.0000000000
3.7365768897	0.2215267070	0.6984882811	0.4663720147	1.2793138176	0.0000000000	0.0000000000	0.0000000000
3.7407471764	0.2201770315	0.6974227478	0.4635305926	1.2810897064	0.0000000000	0.0000000000	0.0000000000
3.7449174631	0.2188227249	0.6963535584	0.4606794207	1.2828716888	0.0000000000	0.0000000000	0.0000000000
3.7490877498	0.2174638997	0.6952808017	0.4578187363	1.2846596166	0.0000000000	0.0000000000	0.0000000000
3.7532580365	0.2161006694	0.6942045672	0.4549487776	1.2864533408	0.0000000000	0.0000000000	0.0000000000
3.7574283232	0.2147331477	0.6931249448	0.4520697846	1.2882527114	0.0000000000	0.0000000000	0.0000000000
3.7615986099	0.2133614490	0.6920420248	0.4491819979	1.2900575781	0.0000000000	0.0000000000	0.0000000000
3.7657688966	0.2119856884	0.6909558980	0.4462856597	1.2918677895	0.0000000000	0.0000000000	0.0000000000
3.7699391833	0.2106059813	0.6898666556	0.4433810132	1.2936831935	0.0000000000	0.0000000000	0.0000000000
3.7741094700	0.2092224438	0.6887743891	0.4404683027	1.2955036376	0.0000000000	0.0000000000	0.0000000000
3.7782797567	0.2078351924	0.6876791907	0.4375477735	1.2973289684	0.0000000000	0.0000000000	0.0000000000
3.7824500434	0.2064443442	0.6865811526	0.4346196719	1.2991590318	0.0000000000	0.0000000000	0.0000000000
3.7866203301	0.2050500166	0.6854803676	0.4316842455	1.3009936734	0.0000000000	0.0000000000	0.0000000000
3.7907906169	0.2036523276	0.6843769290	0.4287417424	1.3028327378	0.0000000000	0.0000000000	0.0000000000
3.7949609036	0.2022513957	0.6832709301	0.4257924120	1.3046760693	0.0000000000	0.0000000000	0.0000000000
3.7991311903	0.2008473396	0.6821624648	0.4228365044	1.3065235115	0.0000000000	0.0000000000	0.0000000000
3.8033014770	0.1994402786	0.6810516271	0.4198742707	1.3083749076	0.0000000000	0.0000000000	0.0000000000
3.8074717637	0.1980303323	0.6799385116	0.4169059628	1.3102301001	0.0000000000	0.0000000000	0.0000000000
3.8116420504	0.1966176208	0.6788232130	0.4139318332	1.3120889310	0.0000000000	0.0000000000	0.0000000000
3.8158123371	0.1952022643	0.6777058264	0.4109521354	1.3139512422	0.0000000000	0.0000000000	0.0000000000
3.8199826238	0.1937843837	0.6765864469	0.4079671235	1.3158168746	0.0000000000	0.0000000000	0.0000000000
3.8241529105	0.1923640999	0.6754651702	0.4049770524	1.3176856691	0.0000000000	0.0000000000	0.0000000000
3.8283231972	0.1909415343	0.6743420922	0.4019821775	1.3195574659	0.0000000000	0.0000000000	0.0000000000
3.8324934839	0.1895168086	0.6732173087	0.3989827549	1.3214321050	0.0000000000	0.0000000000	0.0000000000
3.8366637706	0.1880900447	0.6720909161	0.3959790415	1.3233094259	0.0000000000	0.0000000000	0.0000000000
3.8408340573	0.1866613648	0.6709630110	0.3929712943	1.3251892679	0.0000000000	0.0000000000	0.0000000000
3.8450043440	0.1852308913	0.6698336898	0.3899597713	1.3270714698	0.0000000000	0.0000000000	0.0000000000
3.8491746308	0.1837987470	0.6687030496	0.3869447306	1.3289558702	0.0000000000	0.0000000000	0.0000000000
3.8533449175	0.1823650547	0.6675711872	0.3839264310	1.3308423074	0.0000000000	0.0000000000	0.0000000000
3.8575152042	0.1809299376	0.6664382000	0.3809051318	1.3327306194	0.0000000000	0.0000000000	0.0000000000
3.8616854909	0.1794935189	0.6653041852	0.3778810923	1.3346206441	0.0000000000	0.0000000000	0.0000000000
3.8658557776	0.1780559220	0.6641692403	0.3748545726	1.3365122189	0.0000000000	0.0000000000	0.0000000000
3.8700260643	0.1766172706	0.6630334629	0.3718258328	1.3384051813	0.0000000000	0.0000000000	0.0000000000
3.8741963510	0.1751776884	0.6618969506	0.3687951335	1.3402993684	0.0000000000	0.0000000000	0.0000000000
3.8783666377	0.1737372993	0.6607598013	0.3657627353	1.3421946172	0.0000000000	0.0000000000	0.0000000000
